<svg width="24" height="24" viewBox="0 0 24 24" fill="none" xmlns="http://www.w3.org/2000/svg">
<path d="M14.525 14C15.6583 14 16.621 13.6083 17.413 12.825C18.205 12.0417 18.6423 11.1 18.725 10C17.5916 10 16.621 10.3917 15.813 11.175C15.005 11.9583 14.5756 12.9 14.525 14ZM14.525 14C14.475 12.9 14.046 11.9583 13.238 11.175C12.43 10.3917 11.459 10 10.325 10C10.4083 11.1 10.846 12.0417 11.638 12.825C12.43 13.6083 13.3923 14 14.525 14ZM14.525 11C14.8083 11 15.046 10.904 15.238 10.712C15.43 10.52 15.5256 10.2827 15.525 10V9.75L15.775 9.85C16.025 9.95 16.2793 9.975 16.538 9.925C16.7966 9.875 16.9923 9.73333 17.125 9.5C17.275 9.25 17.325 8.98333 17.275 8.7C17.225 8.41667 17.0583 8.21667 16.775 8.1L16.525 8L16.775 7.9C17.0583 7.78333 17.221 7.579 17.263 7.287C17.305 6.995 17.259 6.73267 17.125 6.5C16.975 6.25 16.775 6.10433 16.525 6.063C16.275 6.02167 16.025 6.05067 15.775 6.15L15.525 6.25V6C15.525 5.71667 15.429 5.47933 15.237 5.288C15.045 5.09667 14.808 5.00067 14.526 5C14.244 4.99933 14.0066 5.09533 13.814 5.288C13.6213 5.48067 13.5253 5.718 13.526 6V6.25L13.276 6.15C13.026 6.05 12.776 6.02067 12.526 6.062C12.276 6.10333 12.076 6.24933 11.926 6.5C11.7926 6.73333 11.747 6.996 11.789 7.288C11.831 7.58 11.9933 7.784 12.276 7.9L12.526 8L12.276 8.1C11.9926 8.21667 11.826 8.41667 11.776 8.7C11.726 8.98333 11.776 9.25 11.926 9.5C12.0593 9.73333 12.2553 9.875 12.514 9.925C12.7726 9.975 13.0266 9.95 13.276 9.85L13.526 9.75V10C13.526 10.2833 13.622 10.521 13.814 10.713C14.006 10.905 14.2433 11.0007 14.526 11M14.526 9C14.2426 9 14.0053 8.904 13.814 8.712C13.6226 8.52 13.5263 8.28267 13.525 8C13.5236 7.71733 13.6196 7.48 13.813 7.288C14.0063 7.096 14.2436 7 14.525 7C14.8063 7 15.044 7.096 15.238 7.288C15.432 7.48 15.5276 7.71733 15.525 8C15.5223 8.28267 15.4263 8.52033 15.237 8.713C15.0476 8.90567 14.8103 9.00133 14.525 9M12.825 19H18.3C18.2 19.4 18 19.746 17.7 20.038C17.4 20.33 17.0333 20.5007 16.6 20.55L5.69998 21.875C5.14998 21.9417 4.65431 21.8083 4.21298 21.475C3.77165 21.1417 3.51731 20.7 3.44998 20.15L2.14998 9.2C2.08331 8.65 2.22098 8.15833 2.56298 7.725C2.90498 7.29167 3.35065 7.04167 3.89998 6.975L5.02498 6.85V8.85L4.12498 8.95L5.47498 19.9L12.825 19ZM9.02498 17C8.47498 17 8.00398 16.8043 7.61198 16.413C7.21998 16.0217 7.02431 15.5507 7.02498 15V4C7.02498 3.45 7.22098 2.97933 7.61298 2.588C8.00498 2.19667 8.47565 2.00067 9.02498 2H20.025C20.575 2 21.046 2.196 21.438 2.588C21.83 2.98 22.0256 3.45067 22.025 4V15C22.025 15.55 21.8293 16.021 21.438 16.413C21.0466 16.805 20.5756 17.0007 20.025 17H9.02498ZM9.02498 15H20.025V4H9.02498V15Z" fill="black"/>
</svg>
