<svg width="24" height="24" viewBox="0 0 24 24" fill="none" xmlns="http://www.w3.org/2000/svg">
<path d="M3 19.4375V9.3125C3 8.95625 3.07987 8.61875 3.23962 8.3C3.39937 7.98125 3.6195 7.71875 3.9 7.5125L10.65 2.45C11.0437 2.15 11.4937 2 12 2C12.5062 2 12.9562 2.15 13.35 2.45L20.1 7.5125C20.3812 7.71875 20.6017 7.98125 20.7615 8.3C20.9212 8.61875 21.0007 8.95625 21 9.3125V19.4375C21 20.0562 20.7795 20.5861 20.3385 21.0271C19.8975 21.4681 19.368 21.6882 18.75 21.6875H15.375C15.0562 21.6875 14.7892 21.5795 14.574 21.3635C14.3587 21.1475 14.2507 20.8805 14.25 20.5625V14.9375C14.25 14.6187 14.142 14.3517 13.926 14.1365C13.71 13.9212 13.443 13.8132 13.125 13.8125H10.875C10.5562 13.8125 10.2892 13.9205 10.074 14.1365C9.85875 14.3525 9.75075 14.6195 9.75 14.9375V20.5625C9.75 20.8812 9.642 21.1486 9.426 21.3646C9.21 21.5806 8.943 21.6882 8.625 21.6875H5.25C4.63125 21.6875 4.10175 21.4674 3.6615 21.0271C3.22125 20.5869 3.00075 20.057 3 19.4375Z" fill="black"/>
</svg>
