<svg width="24" height="24" viewBox="0 0 24 24" fill="none" xmlns="http://www.w3.org/2000/svg">
<path d="M5.25006 19.4375H8.62506V13.8125C8.62506 13.4937 8.73306 13.2267 8.94906 13.0115C9.16506 12.7962 9.43206 12.6882 9.75006 12.6875H14.2501C14.5688 12.6875 14.8362 12.7955 15.0522 13.0115C15.2682 13.2275 15.3758 13.4945 15.3751 13.8125V19.4375H18.7501V9.3125L12.0001 4.25L5.25006 9.3125V19.4375ZM3.00006 19.4375V9.3125C3.00006 8.95625 3.07994 8.61875 3.23969 8.3C3.39944 7.98125 3.61956 7.71875 3.90006 7.5125L10.6501 2.45C11.0438 2.15 11.4938 2 12.0001 2C12.5063 2 12.9563 2.15 13.3501 2.45L20.1001 7.5125C20.3813 7.71875 20.6018 7.98125 20.7616 8.3C20.9213 8.61875 21.0008 8.95625 21.0001 9.3125V19.4375C21.0001 20.0562 20.7796 20.5861 20.3386 21.0271C19.8976 21.4681 19.3681 21.6882 18.7501 21.6875H14.2501C13.9313 21.6875 13.6643 21.5795 13.4491 21.3635C13.2338 21.1475 13.1258 20.8805 13.1251 20.5625V14.9375H10.8751V20.5625C10.8751 20.8812 10.7671 21.1486 10.5511 21.3646C10.3351 21.5806 10.0681 21.6882 9.75006 21.6875H5.25006C4.63131 21.6875 4.10181 21.4674 3.66156 21.0271C3.22131 20.5869 3.00081 20.057 3.00006 19.4375Z" fill="black"/>
</svg>
