<svg width="24" height="24" viewBox="0 0 24 24" fill="none" xmlns="http://www.w3.org/2000/svg">
<path d="M0 0H24V24H0V0Z" fill="white" fill-opacity="0.01"/>
<path d="M4.125 6.75C4.125 5.64543 5.02043 4.75 6.125 4.75H18.125C19.2296 4.75 20.125 5.64543 20.125 6.75V14.75C20.125 15.8546 19.2296 16.75 18.125 16.75H14.9534C14.423 16.75 13.9143 16.9607 13.5392 17.3358C12.7582 18.1168 11.4918 18.1168 10.7108 17.3358C10.3357 16.9607 9.82701 16.75 9.29657 16.75H6.125C5.02043 16.75 4.125 15.8546 4.125 14.75V6.75Z" fill="#9A9A9D" stroke="#9A9A9D" stroke-width="2" stroke-linecap="round" stroke-linejoin="round"/>
<circle cx="8.0625" cy="10.6875" r="0.9375" fill="white"/>
<circle cx="12.1875" cy="10.6875" r="0.9375" fill="white"/>
<circle cx="16.3125" cy="10.6875" r="0.9375" fill="white"/>
</svg>
