<svg width="20" height="20" viewBox="0 0 20 20" fill="none" xmlns="http://www.w3.org/2000/svg">
<path d="M6.11117 17C5.68339 17 5.31731 16.8478 5.01294 16.5434C4.70805 16.2386 4.55561 15.8722 4.55561 15.4444V5.33333C4.33524 5.33333 4.15039 5.25893 4.00105 5.11011C3.85224 4.96078 3.77783 4.77593 3.77783 4.55556C3.77783 4.33519 3.85224 4.15033 4.00105 4.001C4.15039 3.85219 4.33524 3.77778 4.55561 3.77778H7.66672C7.66672 3.55741 7.74139 3.37256 7.89072 3.22322C8.03954 3.07441 8.22413 3 8.4445 3H11.5556C11.776 3 11.9608 3.07441 12.1102 3.22322C12.259 3.37256 12.3334 3.55741 12.3334 3.77778H15.4445C15.6649 3.77778 15.8495 3.85219 15.9983 4.001C16.1476 4.15033 16.2223 4.33519 16.2223 4.55556C16.2223 4.77593 16.1476 4.96078 15.9983 5.11011C15.8495 5.25893 15.6649 5.33333 15.4445 5.33333V15.4444C15.4445 15.8722 15.2923 16.2386 14.9879 16.5434C14.6831 16.8478 14.3167 17 13.8889 17H6.11117ZM7.66672 13.1111C7.66672 13.3315 7.74139 13.5161 7.89072 13.6649C8.03954 13.8142 8.22413 13.8889 8.4445 13.8889C8.66487 13.8889 8.84972 13.8142 8.99905 13.6649C9.14787 13.5161 9.22228 13.3315 9.22228 13.1111V7.66667C9.22228 7.4463 9.14787 7.26144 8.99905 7.11211C8.84972 6.9633 8.66487 6.88889 8.4445 6.88889C8.22413 6.88889 8.03954 6.9633 7.89072 7.11211C7.74139 7.26144 7.66672 7.4463 7.66672 7.66667V13.1111ZM10.7778 13.1111C10.7778 13.3315 10.8525 13.5161 11.0018 13.6649C11.1506 13.8142 11.3352 13.8889 11.5556 13.8889C11.776 13.8889 11.9608 13.8142 12.1102 13.6649C12.259 13.5161 12.3334 13.3315 12.3334 13.1111V7.66667C12.3334 7.4463 12.259 7.26144 12.1102 7.11211C11.9608 6.9633 11.776 6.88889 11.5556 6.88889C11.3352 6.88889 11.1506 6.9633 11.0018 7.11211C10.8525 7.26144 10.7778 7.4463 10.7778 7.66667V13.1111Z" fill="#9B9B9B"/>
</svg>
