<svg width="20" height="20" viewBox="0 0 20 20" fill="none" xmlns="http://www.w3.org/2000/svg">
<path d="M10 18C8.20741 18 6.6 17.4702 5.17778 16.4107C3.75556 15.3517 2.8 13.9704 2.31111 12.2667C2.23704 12 2.26311 11.7481 2.38933 11.5111C2.51496 11.2741 2.71111 11.1259 2.97778 11.0667C3.22963 11.0074 3.4557 11.0628 3.656 11.2329C3.8557 11.4036 3.99259 11.6148 4.06667 11.8667C4.45185 13.1704 5.19644 14.2222 6.30044 15.0222C7.40385 15.8222 8.63704 16.2222 10 16.2222C11.7333 16.2222 13.2036 15.6184 14.4107 14.4107C15.6184 13.2036 16.2222 11.7333 16.2222 10C16.2222 8.26667 15.6184 6.79615 14.4107 5.58844C13.2036 4.38133 11.7333 3.77778 10 3.77778C8.97778 3.77778 8.02222 4.01482 7.13333 4.48889C6.24444 4.96296 5.4963 5.61481 4.88889 6.44444H6.44444C6.6963 6.44444 6.90756 6.52948 7.07822 6.69956C7.2483 6.87022 7.33333 7.08148 7.33333 7.33333C7.33333 7.58519 7.2483 7.79615 7.07822 7.96622C6.90756 8.13689 6.6963 8.22222 6.44444 8.22222H2.88889C2.63704 8.22222 2.42607 8.13689 2.256 7.96622C2.08533 7.79615 2 7.58519 2 7.33333V3.77778C2 3.52593 2.08533 3.31467 2.256 3.144C2.42607 2.97393 2.63704 2.88889 2.88889 2.88889C3.14074 2.88889 3.352 2.97393 3.52267 3.144C3.69274 3.31467 3.77778 3.52593 3.77778 3.77778V4.97778C4.53333 4.02963 5.4557 3.2963 6.54489 2.77778C7.63348 2.25926 8.78519 2 10 2C11.1111 2 12.152 2.21096 13.1227 2.63289C14.0927 3.05541 14.9372 3.62578 15.656 4.344C16.3742 5.06281 16.9446 5.90726 17.3671 6.87733C17.789 7.848 18 8.88889 18 10C18 11.1111 17.789 12.1517 17.3671 13.1218C16.9446 14.0924 16.3742 14.9369 15.656 15.6551C14.9372 16.3739 14.0927 16.9446 13.1227 17.3671C12.152 17.789 11.1111 18 10 18Z" fill="#666667"/>
</svg>
