<svg width="20" height="20" viewBox="0 0 20 20" fill="none" xmlns="http://www.w3.org/2000/svg">
<path d="M6 7C5.71667 7 5.479 6.904 5.287 6.712C5.09567 6.52067 5 6.28333 5 6C5 5.71667 5.09567 5.479 5.287 5.287C5.479 5.09567 5.71667 5 6 5H18C18.2833 5 18.5207 5.09567 18.712 5.287C18.904 5.479 19 5.71667 19 6C19 6.28333 18.904 6.52067 18.712 6.712C18.5207 6.904 18.2833 7 18 7H6ZM6 11C5.71667 11 5.479 10.904 5.287 10.712C5.09567 10.5207 5 10.2833 5 10C5 9.71667 5.09567 9.479 5.287 9.287C5.479 9.09567 5.71667 9 6 9H18C18.2833 9 18.5207 9.09567 18.712 9.287C18.904 9.479 19 9.71667 19 10C19 10.2833 18.904 10.5207 18.712 10.712C18.5207 10.904 18.2833 11 18 11H6ZM6 15C5.71667 15 5.479 14.904 5.287 14.712C5.09567 14.5207 5 14.2833 5 14C5 13.7167 5.09567 13.479 5.287 13.287C5.479 13.0957 5.71667 13 6 13H18C18.2833 13 18.5207 13.0957 18.712 13.287C18.904 13.479 19 13.7167 19 14C19 14.2833 18.904 14.5207 18.712 14.712C18.5207 14.904 18.2833 15 18 15H6ZM2 7C1.71667 7 1.47933 6.904 1.288 6.712C1.096 6.52067 1 6.28333 1 6C1 5.71667 1.096 5.479 1.288 5.287C1.47933 5.09567 1.71667 5 2 5C2.28333 5 2.521 5.09567 2.713 5.287C2.90433 5.479 3 5.71667 3 6C3 6.28333 2.90433 6.52067 2.713 6.712C2.521 6.904 2.28333 7 2 7ZM2 11C1.71667 11 1.47933 10.904 1.288 10.712C1.096 10.5207 1 10.2833 1 10C1 9.71667 1.096 9.479 1.288 9.287C1.47933 9.09567 1.71667 9 2 9C2.28333 9 2.521 9.09567 2.713 9.287C2.90433 9.479 3 9.71667 3 10C3 10.2833 2.90433 10.5207 2.713 10.712C2.521 10.904 2.28333 11 2 11ZM2 15C1.71667 15 1.47933 14.904 1.288 14.712C1.096 14.5207 1 14.2833 1 14C1 13.7167 1.096 13.479 1.288 13.287C1.47933 13.0957 1.71667 13 2 13C2.28333 13 2.521 13.0957 2.713 13.287C2.90433 13.479 3 13.7167 3 14C3 14.2833 2.90433 14.5207 2.713 14.712C2.521 14.904 2.28333 15 2 15Z" fill="black"/>
</svg>
